<svg width="196" height="28" viewBox="0 0 196 28" fill="none" xmlns="http://www.w3.org/2000/svg">
<path d="M2.99231 6.73305C4.48849 6.73305 5.77094 5.4506 5.77094 3.95442C5.77094 2.45823 4.48849 1.17578 2.99231 1.17578C1.49613 1.17578 0.213684 2.45823 0.213684 3.95442C0.213684 5.55747 1.49613 6.73305 2.99231 6.73305Z" fill="white"/>
<path d="M47.4505 6.73305C48.9466 6.73305 50.2291 5.4506 50.2291 3.95442C50.2291 2.45823 48.9466 1.17578 47.4505 1.17578C45.9543 1.17578 44.6718 2.45823 44.6718 3.95442C44.6718 5.55747 45.9543 6.73305 47.4505 6.73305Z" fill="white"/>
<path d="M92.336 6.73305C93.8321 6.73305 95.1146 5.4506 95.1146 3.95442C95.1146 2.45823 93.8321 1.17578 92.336 1.17578C90.8398 1.17578 89.5573 2.45823 89.5573 3.95442C89.4505 5.55747 90.7329 6.73305 92.336 6.73305Z" fill="white"/>
<path d="M47.4504 19.5574L23.7252 1.81689L0 19.5574V27.7864C0.961833 27.1452 22.3359 11.4352 23.7252 10.4734C25.1145 11.5421 47.4504 27.8932 47.4504 27.8932C47.4504 27.8932 69.7863 11.5421 71.1756 10.4734C72.5649 11.5421 94.9008 27.8932 94.9008 27.8932L95.0077 27.7864V19.7711L71.1756 1.92377L47.4504 19.5574Z" fill="white"/>
<path d="M107.725 6.19846L110.824 12.2901L113.924 6.19846L114.992 12.1832L117.344 11.8626L114.992 0L110.824 8.01527L106.763 0L104.412 11.8626L106.763 12.1832L107.725 6.19846Z" fill="white"/>
<path d="M120.657 12.0763C121.512 12.0763 122.153 11.7557 122.687 11.1145V11.8625L124.504 11.6488V6.19841C124.504 5.98467 124.504 5.77093 124.504 5.66406C124.504 5.45032 124.397 5.23656 124.29 4.91595C124.183 4.59534 123.97 4.27474 123.863 4.061C123.649 3.84726 123.328 3.63352 122.901 3.41978C122.473 3.20604 121.939 3.20605 121.405 3.20605C120.763 3.20605 119.908 3.31291 118.947 3.52665L118.412 5.55718C119.267 5.23657 120.122 5.02283 120.977 5.02283C121.298 5.02283 121.618 5.02284 121.832 5.12971C122.046 5.23658 122.26 5.34344 122.26 5.55718C122.366 5.77092 122.366 5.87779 122.473 5.98466C122.473 6.09153 122.473 6.19842 122.473 6.41216V6.83964C121.832 6.41216 121.298 6.30529 120.657 6.30529C120.229 6.30529 119.802 6.41214 119.374 6.51901C119.054 6.62588 118.733 6.83962 118.519 7.05336C118.305 7.2671 118.092 7.48085 117.985 7.80146C117.878 8.01521 117.771 8.33583 117.664 8.54957C117.557 8.76331 117.557 9.0839 117.557 9.29764C117.557 10.1526 117.878 10.7938 118.412 11.3282C119.054 11.8625 119.802 12.0763 120.657 12.0763ZM120.015 8.33582C120.229 8.12208 120.657 8.01522 121.084 8.01522C121.618 8.01522 121.939 8.12208 122.153 8.33582C122.366 8.54956 122.473 8.87015 122.473 9.19077C122.473 9.51138 122.366 9.83201 122.153 10.0457C121.939 10.2595 121.512 10.3663 121.084 10.3663C120.55 10.3663 120.229 10.2595 120.015 10.0457C119.802 9.83201 119.695 9.51138 119.695 9.19077C119.588 8.87015 119.695 8.54956 120.015 8.33582Z" fill="white"/>
<path d="M128.137 5.45051H131.237L130.916 3.52686H126.107V11.9696L128.137 11.7559V5.45051Z" fill="white"/>
<path d="M134.87 12.0763C135.725 12.0763 136.367 11.7557 136.901 11.1145V11.8625L138.718 11.6488V6.19841C138.718 5.98467 138.718 5.77093 138.718 5.66406C138.718 5.45032 138.611 5.23656 138.504 4.91595C138.397 4.59534 138.183 4.27474 138.076 4.061C137.863 3.84726 137.542 3.63352 137.115 3.41978C136.687 3.20604 136.153 3.20605 135.618 3.20605C134.977 3.20605 134.122 3.31291 133.16 3.52665L132.626 5.55718C133.481 5.23657 134.336 5.02283 135.191 5.02283C135.512 5.02283 135.832 5.02284 136.046 5.12971C136.26 5.23658 136.473 5.34344 136.473 5.55718C136.58 5.77092 136.58 5.87779 136.687 5.98466C136.687 6.09153 136.687 6.19842 136.687 6.41216V6.83964C136.046 6.41216 135.512 6.30529 134.87 6.30529C134.443 6.30529 134.015 6.41214 133.588 6.51901C133.267 6.62588 132.947 6.83962 132.733 7.05336C132.519 7.2671 132.305 7.48085 132.199 7.80146C132.092 8.01521 131.985 8.33583 131.878 8.54957C131.771 8.76331 131.771 9.0839 131.771 9.29764C131.771 10.1526 132.092 10.7938 132.626 11.3282C133.267 11.8625 134.015 12.0763 134.87 12.0763ZM134.122 8.33582C134.336 8.12208 134.764 8.01522 135.191 8.01522C135.725 8.01522 136.046 8.12208 136.26 8.33582C136.473 8.54956 136.58 8.87015 136.58 9.19077C136.58 9.51138 136.473 9.83201 136.26 10.0457C136.046 10.2595 135.618 10.3663 135.191 10.3663C134.657 10.3663 134.336 10.2595 134.122 10.0457C133.909 9.83201 133.802 9.51138 133.802 9.19077C133.802 8.87015 133.909 8.54956 134.122 8.33582Z" fill="white"/>
<path d="M141.603 11.8624H145.771V13.3586L147.695 13.1448V9.9387H146.947L143.634 2.88525L140.428 9.9387H139.679V13.3586L141.603 13.1448V11.8624ZM143.634 7.26694L144.916 10.1525H142.458L143.634 7.26694Z" fill="white"/>
<path d="M155.069 4.91595C154.962 4.59534 154.748 4.27474 154.641 4.061C154.428 3.84726 154.107 3.63352 153.68 3.41978C153.252 3.20604 152.718 3.20605 152.183 3.20605C151.542 3.20605 150.687 3.31291 149.725 3.52665L149.191 5.55718C150.046 5.23657 150.901 5.02283 151.756 5.02283C152.076 5.02283 152.397 5.02284 152.611 5.12971C152.825 5.23658 153.038 5.34344 153.038 5.55718C153.145 5.77092 153.145 5.87779 153.252 5.98466C153.252 6.09153 153.252 6.19842 153.252 6.41216V6.83964C152.611 6.41216 152.076 6.30529 151.435 6.30529C151.008 6.30529 150.58 6.41214 150.153 6.51901C149.832 6.62588 149.512 6.83962 149.298 7.05336C149.084 7.2671 148.87 7.48085 148.764 7.80146C148.657 8.01521 148.55 8.33583 148.443 8.54957C148.336 8.76331 148.336 9.0839 148.336 9.29764C148.336 10.1526 148.657 10.7938 149.191 11.3282C149.832 11.8625 150.58 12.1832 151.435 12.1832C152.29 12.1832 152.931 11.8625 153.466 11.2213V11.9694L155.283 11.7557V6.19841C155.283 5.98467 155.283 5.77093 155.283 5.66406C155.283 5.55719 155.176 5.23656 155.069 4.91595ZM152.931 10.0457C152.718 10.2595 152.29 10.3663 151.863 10.3663C151.328 10.3663 151.008 10.2595 150.794 10.0457C150.58 9.83201 150.473 9.51138 150.473 9.19077C150.473 8.87015 150.58 8.54956 150.794 8.33582C151.008 8.12208 151.435 8.01522 151.863 8.01522C152.397 8.01522 152.718 8.12208 152.931 8.33582C153.145 8.54956 153.252 8.87015 153.252 9.19077C153.252 9.51138 153.145 9.83201 152.931 10.0457Z" fill="white"/>
<path d="M161.695 6.62597H158.916V3.31299L156.779 3.52674V11.9695L158.916 11.7558V8.54966H161.695V11.9695L163.725 11.7558V3.31299L161.695 3.52674V6.62597Z" fill="white"/>
<path d="M169.389 10.2596C168.641 10.2596 168.107 10.0459 167.68 9.61842C167.252 9.19094 166.931 8.5497 166.931 7.80161C166.931 7.05352 167.145 6.41228 167.68 5.9848C168.214 5.55732 168.748 5.34361 169.389 5.34361C170.031 5.34361 170.565 5.55732 171.099 5.9848L172.168 4.48862C171.313 3.8474 170.351 3.41992 169.283 3.41992C168 3.41992 166.931 3.84742 166.076 4.70238C165.222 5.55734 164.901 6.62604 164.901 7.90849C164.901 9.08406 165.328 10.1528 166.183 11.0077C167.038 11.8627 168.107 12.2902 169.496 12.2902C170.565 12.2902 171.527 11.9696 172.382 11.2215L171.206 9.61842C170.565 10.0459 170.031 10.2596 169.389 10.2596Z" fill="white"/>
<path d="M181.038 4.061L179.008 3.20605L175.481 7.37399V3.3129L173.344 3.52665V11.9694L175.481 11.7557V7.58771L179.115 12.0763L181.252 11.5419L177.939 7.37399L181.038 4.061Z" fill="white"/>
<path d="M188.305 4.91595C188.199 4.59534 187.985 4.27474 187.878 4.061C187.664 3.84726 187.344 3.63352 186.916 3.41978C186.489 3.20604 185.954 3.20605 185.42 3.20605C184.779 3.20605 183.924 3.31291 182.962 3.52665L182.428 5.55718C183.283 5.23657 184.138 5.02283 184.993 5.02283C185.313 5.02283 185.634 5.02284 185.847 5.12971C186.061 5.23658 186.275 5.34344 186.275 5.55718C186.382 5.77092 186.382 5.87779 186.489 5.98466C186.489 6.09153 186.489 6.19842 186.489 6.41216V6.83964C185.847 6.41216 185.313 6.30529 184.672 6.30529C184.244 6.30529 183.817 6.41214 183.389 6.51901C183.069 6.62588 182.748 6.83962 182.535 7.05336C182.321 7.2671 182.107 7.48085 182 7.80146C181.893 8.01521 181.786 8.33583 181.68 8.54957C181.573 8.76331 181.573 9.0839 181.573 9.29764C181.573 10.1526 181.893 10.7938 182.428 11.3282C183.069 11.8625 183.817 12.1832 184.672 12.1832C185.527 12.1832 186.168 11.8625 186.702 11.2213V11.9694L188.519 11.7557V6.19841C188.519 5.98467 188.519 5.77093 188.519 5.66406C188.412 5.55719 188.412 5.23656 188.305 4.91595ZM186.061 10.0457C185.847 10.2595 185.42 10.3663 184.993 10.3663C184.458 10.3663 184.138 10.2595 183.924 10.0457C183.71 9.83201 183.603 9.51138 183.603 9.19077C183.603 8.87015 183.71 8.54956 183.924 8.33582C184.138 8.12208 184.565 8.01522 184.993 8.01522C185.527 8.01522 185.847 8.12208 186.061 8.33582C186.275 8.54956 186.382 8.87015 186.382 9.19077C186.382 9.51138 186.275 9.83201 186.061 10.0457Z" fill="white"/>
<path d="M193.115 3.5268C191.939 3.5268 191.191 3.8474 190.55 4.38175C189.909 4.9161 189.695 5.55734 189.695 6.30543C189.695 6.83979 189.802 7.26725 190.122 7.69473C190.443 8.12222 190.763 8.44285 191.298 8.54972L189.267 11.4352L191.405 12.0764L193.97 7.90849V11.8627L196 11.6489V3.41992H193.115V3.5268ZM194.076 7.48101H193.221C192.794 7.48101 192.473 7.37412 192.26 7.16038C192.046 6.94664 191.832 6.73292 191.832 6.41231C191.832 6.19857 191.939 5.98483 192.046 5.87796C192.153 5.77109 192.26 5.6642 192.473 5.55733C192.687 5.55733 192.794 5.45045 192.901 5.45045C193.008 5.45045 193.115 5.45045 193.221 5.45045H194.076V7.48101Z" fill="white"/>
<path d="M109.542 19.0229C108.26 19.0229 107.191 19.4504 106.336 20.3054C105.481 21.1604 105.054 22.2291 105.054 23.4046C105.054 24.5802 105.481 25.6489 106.336 26.5039C107.191 27.3588 108.26 27.7863 109.542 27.7863C110.825 27.7863 111.893 27.3588 112.748 26.5039C113.603 25.6489 114.031 24.5802 114.031 23.4046C114.031 22.2291 113.603 21.1604 112.748 20.3054C111.893 19.4504 110.718 19.0229 109.542 19.0229ZM111.252 25.2214C110.718 25.7558 110.183 25.9695 109.542 25.9695C108.901 25.9695 108.26 25.7558 107.832 25.2214C107.298 24.6871 107.084 24.1527 107.084 23.4046C107.084 22.7634 107.298 22.1222 107.832 21.5878C108.367 21.0535 108.901 20.8398 109.542 20.8398C110.183 20.8398 110.825 21.0535 111.252 21.5878C111.786 22.1222 112 22.6565 112 23.4046C112 24.1527 111.786 24.7939 111.252 25.2214Z" fill="white"/>
<path d="M119.908 19.2363C119.267 19.2363 118.626 19.3432 118.092 19.6638C117.557 19.9844 117.023 20.4118 116.702 21.0531H116.595C116.702 19.7706 117.237 18.8088 118.519 18.2744L123.008 16.2439L121.939 14.2134L118.84 15.7096C118.519 15.8164 118.305 16.0302 118.092 16.137C117.878 16.2439 117.664 16.3508 117.344 16.5645C117.023 16.7783 116.809 16.992 116.595 17.2057C116.382 17.4195 116.168 17.7401 115.954 18.0607C115.741 18.3813 115.527 18.8088 115.42 19.1294C115.313 19.5569 115.206 19.9844 115.099 20.5187C114.992 21.0531 114.992 21.6943 114.992 22.3355C114.992 23.1905 115.099 23.9386 115.313 24.5798C115.527 25.221 115.74 25.7554 116.061 26.1829C116.382 26.6103 116.702 26.931 117.13 27.1447C117.557 27.3584 117.985 27.5722 118.305 27.679C118.733 27.7859 119.053 27.7859 119.481 27.7859C120.763 27.7859 121.832 27.3584 122.794 26.5035C123.649 25.6485 124.076 24.6867 124.076 23.4042C124.076 22.2287 123.649 21.16 122.901 20.305C122.046 19.6638 121.084 19.2363 119.908 19.2363ZM121.191 25.221C120.763 25.7554 120.122 25.9691 119.481 25.9691C118.84 25.9691 118.199 25.7554 117.771 25.221C117.344 24.6867 117.023 24.1523 117.023 23.5111C117.023 22.8699 117.237 22.2287 117.771 21.8012C118.199 21.3737 118.84 21.0531 119.481 21.0531C120.122 21.0531 120.763 21.2668 121.191 21.8012C121.618 22.2287 121.939 22.8699 121.939 23.5111C121.939 24.2592 121.725 24.7935 121.191 25.221Z" fill="white"/>
<path d="M124.183 27.6797L126.214 27.8934L128.244 23.0842L130.382 27.8934L132.519 27.6797L128.351 18.5957L124.183 27.6797Z" fill="white"/>
<path d="M139.466 20.7329C139.359 20.4123 139.145 20.1985 139.038 19.8779C138.931 19.5573 138.504 19.4504 138.076 19.2367C137.649 19.023 137.115 19.0229 136.58 19.0229C135.939 19.0229 135.084 19.1298 134.122 19.3435L133.588 21.3741C134.443 21.0535 135.298 20.8398 136.153 20.8398C136.473 20.8398 136.794 20.8397 137.008 20.9466C137.221 21.0535 137.435 21.1604 137.435 21.3741C137.542 21.5878 137.542 21.6947 137.649 21.8016C137.649 21.9085 137.649 22.0153 137.649 22.2291V22.6565C137.008 22.2291 136.473 22.1222 135.832 22.1222C135.405 22.1222 134.977 22.2291 134.55 22.3359C134.229 22.4428 133.908 22.6565 133.695 22.8703C133.481 23.084 133.267 23.2977 133.16 23.6184C133.053 23.8321 132.947 24.1527 132.84 24.3665C132.733 24.5802 132.733 24.9008 132.733 25.1146C132.733 25.9695 133.053 26.6107 133.588 27.1451C134.229 27.6795 134.977 28 135.832 28C136.687 28 137.328 27.6794 137.863 27.0382V27.7863L139.679 27.5726V22.0153C139.679 21.8016 139.679 21.5878 139.679 21.481C139.679 21.2672 139.573 21.0535 139.466 20.7329ZM137.221 25.7558C137.008 25.9695 136.58 26.0764 136.153 26.0764C135.618 26.0764 135.298 25.9695 135.084 25.7558C134.87 25.542 134.763 25.2214 134.763 24.9008C134.763 24.5802 134.87 24.2596 135.084 24.0459C135.298 23.8321 135.725 23.7252 136.153 23.7252C136.687 23.7252 137.008 23.8321 137.221 24.0459C137.435 24.2596 137.542 24.5802 137.542 24.9008C137.649 25.3283 137.542 25.542 137.221 25.7558Z" fill="white"/>
<path d="M145.344 25.9696C144.595 25.9696 144.061 25.7558 143.634 25.3283C143.206 24.9009 142.886 24.2597 142.886 23.5116C142.886 22.7635 143.099 22.1222 143.634 21.6948C144.168 21.2673 144.702 21.0535 145.344 21.0535C145.985 21.0535 146.519 21.2673 147.053 21.6948L148.122 20.1986C147.267 19.5574 146.305 19.1299 145.237 19.1299C143.954 19.1299 142.886 19.5573 142.031 20.4123C141.176 21.2673 140.748 22.336 140.748 23.6184C140.748 24.794 141.176 25.8627 142.031 26.7177C142.886 27.5726 143.954 28.0001 145.344 28.0001C146.412 28.0001 147.374 27.6795 148.229 26.9314L147.053 25.3283C146.519 25.7558 145.985 25.9696 145.344 25.9696Z" fill="white"/>
<path d="M148.55 21.1606H150.687V27.6797L152.718 27.5728V21.1606H154.748V19.3438H148.87L148.55 21.1606Z" fill="white"/>
<path d="M159.023 21.9085H157.741V19.1299L155.71 19.3436V27.6795H159.023C159.985 27.6795 160.733 27.4658 161.374 26.9314C162.015 26.3971 162.229 25.649 162.229 24.794C162.229 23.939 161.908 23.2978 161.267 22.7635C160.626 22.2291 159.878 21.9085 159.023 21.9085ZM159.771 25.5421C159.557 25.7558 159.237 25.8627 158.702 25.8627H157.741V23.6184H158.595C159.13 23.6184 159.557 23.7253 159.771 23.939C159.985 24.1528 160.092 24.4734 160.092 24.6871C160.092 25.1146 159.985 25.3284 159.771 25.5421Z" fill="white"/>
</svg>
